# xmcd
#
# Track frame offsets:
#  183
#  13868
#  35900
#  54980
#  64623
#  81268
#  92718
#  107873
#  123168
#  147030
#  165098
#  185810
#  210615
#  234825
#  259125
#  272490
#  289653
#  305940
#  321933
#
# Disc length: 4538 seconds
#
# Revision: 0
# Processed by: cddbd v1.5.1PL2 Copyright (c) Steve Scherf et al.
# Submitted via: Collectorz.com_Music_Collector 6.11
#
DISCID=0f11b813
DTITLE=Lightnin' Hopkins - How Many More Years I Got
DYEAR=1988
DGENRE=Blues
TTITLE0=How Many More Years I Got
TTITLE1=Walkin' This Road By Myself
TTITLE2=The Devil Jumped The Black Man
TTITLE3=My Baby Don't Stand No Cheatin'
TTITLE4=Black Cadillac
TTITLE5=You Is One Black Rat
TTITLE6=Lightnin' Hopkins - Robinson - Lewis - The Fox Chase
TTITLE7=Mojo Hand
TTITLE8=Mama Blues
TTITLE9=My Black Name
TTITLE10=Prison Farm Blues
TTITLE11=Ida Mae
TTITLE12=I Got A Leak In This Old Building
TTITLE13=Happy Blues For John Glenn
TTITLE14=Worried Life Blues
TTITLE15=Sinner's Prayer
TTITLE16=Angel Child
TTITLE17=Pneumonia Blues
TTITLE18=Have You Ever Been Mistreated
EXTD=
EXTT0=
EXTT1=
EXTT2=
EXTT3=
EXTT4=
EXTT5=
EXTT6=
EXTT7=
EXTT8=
EXTT9=
EXTT10=
EXTT11=
EXTT12=
EXTT13=
EXTT14=
EXTT15=
EXTT16=
EXTT17=
EXTT18=
PLAYORDER=
